<svg width="185" height="106" viewBox="0 0 185 106" fill="none" xmlns="http://www.w3.org/2000/svg">
<path fill-rule="evenodd" clip-rule="evenodd" d="M164.669 74.3038C164.669 74.3038 179.627 89.109 183.327 95.9599C183.399 96.0588 183.455 96.1682 183.493 96.2844C185.001 98.8153 185.371 100.799 184.631 102.264C183.382 104.684 179.155 105.898 177.721 106H151.285C149.444 106 145.614 105.518 140.952 102.292C137.391 99.798 133.848 95.6911 130.417 91.6769C125.292 85.7159 120.861 80.5429 116.375 80.5429C115.809 80.5417 115.246 80.6357 114.71 80.8211C111.315 81.8965 107.005 86.745 107.005 99.6589C107.005 103.701 103.823 106 101.594 106H89.4854C85.3599 106 63.8814 104.554 44.8356 84.4273C21.4979 59.7861 0.537333 10.3553 0.333833 9.91954C-0.970418 6.72118 1.76758 4.97831 4.72759 4.97831H31.4231C35.0029 4.97831 36.1684 7.14763 36.9824 9.09445C37.9259 11.3287 41.4224 20.2655 47.1574 30.3056C56.4444 46.6404 62.1516 53.2874 66.7119 53.2874C67.5687 53.2899 68.4109 53.0661 69.1539 52.6385C75.1109 49.3567 74.0009 28.0343 73.7234 23.64C73.7234 22.7871 73.7142 14.1191 70.6617 9.92881C68.4787 6.92514 64.7601 5.75704 62.5124 5.33059C63.1136 4.45916 64.3902 3.12419 66.0274 2.33619C70.1067 0.296658 77.4789 0 84.7957 0H88.8564C96.7929 0.111247 98.8464 0.621129 101.732 1.35351C107.541 2.7441 107.652 6.51723 107.144 19.3663C106.996 23.0374 106.838 27.1721 106.838 32.0392C106.838 33.0775 106.792 34.2363 106.792 35.4137C106.616 42.0051 106.385 49.4308 111.029 52.4809C111.631 52.8569 112.326 53.056 113.036 53.0556C114.645 53.0556 119.465 53.0556 132.535 30.5744C138.27 20.6456 142.71 8.93685 143.015 8.05615C143.274 7.56481 144.051 6.18349 144.995 5.62725C145.666 5.26936 146.418 5.09058 147.178 5.1081H178.582C182.004 5.1081 184.326 5.62725 184.779 6.92514C185.538 9.02956 184.631 15.4541 170.294 34.8853C167.879 38.1207 165.761 40.9204 163.902 43.3679C150.905 60.4628 150.905 61.325 164.669 74.3038Z" fill="white" fill-opacity="0.1"/>
</svg>
